<svg width="150" height="150" viewBox="0 0 150 150" fill="none" xmlns="http://www.w3.org/2000/svg">
<g id="Interface, Essential/Exit, Log out">
<g id="Group">
<g id="Group_2">
<path id="Path" fill-rule="evenodd" clip-rule="evenodd" d="M68.75 121.2V46.8936C68.75 42.5811 66.5312 38.5749 62.875 36.2936L37.875 20.6686C29.55 15.4686 18.75 21.4499 18.75 31.2686V105.569C18.75 109.881 20.9688 113.887 24.625 116.169L49.625 131.794C57.95 137 68.75 131.012 68.75 121.2Z" stroke="url(#paint0_angular_468_31612)" stroke-width="10" stroke-linecap="round" stroke-linejoin="round"/>
<path id="Path_2" d="M93.75 68.75H131.25" stroke="url(#paint1_angular_468_31612)" stroke-width="10" stroke-linecap="round" stroke-linejoin="round"/>
<path id="Path_3" d="M118.75 81.25L131.25 68.75L118.75 56.25" stroke="url(#paint2_angular_468_31612)" stroke-width="10" stroke-linecap="round" stroke-linejoin="round"/>
<path id="Path_4" d="M68.75 118.75H93.75C100.656 118.75 106.25 113.156 106.25 106.25V100" stroke="url(#paint3_angular_468_31612)" stroke-width="10" stroke-linecap="round" stroke-linejoin="round"/>
<path id="Path_5" d="M106.25 37.5V31.25C106.25 24.3437 100.656 18.75 93.75 18.75H31.25" stroke="url(#paint4_angular_468_31612)" stroke-width="10" stroke-linecap="round" stroke-linejoin="round"/>
</g>
</g>
</g>
<defs>
<radialGradient id="paint0_angular_468_31612" cx="0" cy="0" r="1" gradientUnits="userSpaceOnUse" gradientTransform="translate(44.4513 232.667) rotate(87.5195) scale(593.858 72.7403)">
<stop stop-color="#399A48"/>
<stop offset="1" stop-color="#AACC3A"/>
</radialGradient>
<radialGradient id="paint1_angular_468_31612" cx="0" cy="0" r="1" gradientUnits="userSpaceOnUse" gradientTransform="translate(113.026 77.2545) rotate(59.1365) scale(37.5754 46.8737)">
<stop stop-color="#399A48"/>
<stop offset="1" stop-color="#AACC3A"/>
</radialGradient>
<radialGradient id="paint2_angular_468_31612" cx="0" cy="0" r="1" gradientUnits="userSpaceOnUse" gradientTransform="translate(125.175 102.768) rotate(87.1489) scale(129.178 18.1796)">
<stop stop-color="#399A48"/>
<stop offset="1" stop-color="#AACC3A"/>
</radialGradient>
<radialGradient id="paint3_angular_468_31612" cx="0" cy="0" r="1" gradientUnits="userSpaceOnUse" gradientTransform="translate(88.026 134.888) rotate(78.7337) scale(98.6647 53.5541)">
<stop stop-color="#399A48"/>
<stop offset="1" stop-color="#AACC3A"/>
</radialGradient>
<radialGradient id="paint4_angular_468_31612" cx="0" cy="0" r="1" gradientUnits="userSpaceOnUse" gradientTransform="translate(69.802 53.6384) rotate(68.2769) scale(104.161 101.457)">
<stop stop-color="#399A48"/>
<stop offset="1" stop-color="#AACC3A"/>
</radialGradient>
</defs>
</svg>
